<svg id="Layer_1" data-name="Layer 1" xmlns="http://www.w3.org/2000/svg" viewBox="0 0 515.65 65.68"><defs><style>.cls-1{fill:#fff;}</style></defs><title>save-the-potholes-h03</title><path class="cls-1" d="M251,0a31,31,0,1,0,31,31A31,31,0,0,0,251,0Zm-2.07,9.9c.24-.93,1.42-1.37,2.5-1.37s2.26.49,2.5,1.37c.4,1.38,1,3.49,1.72,5.94-.49,1.13-2.3,1.87-4.22,1.87s-3.73-.74-4.22-1.87C247.9,13.34,248.54,11.23,248.93,9.9Zm-3.24,11.29c.44,1.57,2.94,2.7,5.79,2.7s5.35-1.13,5.79-2.7c.64,2.21,1.33,4.52,1.92,6.58-.25,2.25-3.64,3.92-7.76,3.92s-7.51-1.71-7.65-3.92C244.36,25.71,245.05,23.4,245.69,21.19Zm21,18.06L254.57,49a6.15,6.15,0,0,1-6.23,0l-12.12-9.77c-1.72-1.13-1.67-2.75.15-3.63l6.42-3.53-.73,2.5c.05,2.7,4.32,4.81,9.37,4.81s9.33-2.16,9.38-4.81l-.74-2.5,6.43,3.53C268.31,36.5,268.36,38.17,266.69,39.25Z"/><path class="cls-1" d="M294.8,42.45h1.3a2,2,0,0,0,1.46-.43,1.93,1.93,0,0,0,.41-1.35V20.18a1.81,1.81,0,0,0-.41-1.32,2,2,0,0,0-1.46-.41h-1.3V14.9h16.47a10.74,10.74,0,0,1,7.51,2.47,9.13,9.13,0,0,1,2.71,7.08,9.64,9.64,0,0,1-2.76,7.27,10.33,10.33,0,0,1-7.51,2.66h-8.16v6.29a1.88,1.88,0,0,0,.41,1.35,2,2,0,0,0,1.46.43h1.25V46H294.8Zm15.75-11.62A5.86,5.86,0,0,0,315,29.27a6.81,6.81,0,0,0,1.47-4.82c0-2.21-.47-3.76-1.39-4.66s-2.45-1.34-4.56-1.34h-7.49V30.83Z"/><path class="cls-1" d="M327,42.66q-3.49-4-3.5-12.12t3.43-12.28q3.44-4.08,10.82-4.08t10.78,4.08q3.43,4.08,3.43,12.28t-3.5,12.12q-3.51,4-10.71,4T327,42.66Zm17.71-2.47q2.26-2.92,2.26-9.65T344.7,20.7q-2.24-3-7-3t-7,3q-2.24,3-2.23,9.84t2.26,9.65c1.5,2,3.84,2.93,7,2.93S343.17,42.14,344.67,40.19Z"/><path class="cls-1" d="M359.79,42.4h1.3a2.05,2.05,0,0,0,1.46-.41,1.81,1.81,0,0,0,.41-1.32V18.5h-4.42a2,2,0,0,0-1.39.4,1.8,1.8,0,0,0-.43,1.32v1.54h-3.79V14.94H378v6.82h-3.79V20.22a1.8,1.8,0,0,0-.41-1.34,2.07,2.07,0,0,0-1.41-.38h-4.37V40.67a1.77,1.77,0,0,0,.41,1.32,2.05,2.05,0,0,0,1.46.41h1.3V46H359.79Z"/><path class="cls-1" d="M380.72,42.45h1.39a1.86,1.86,0,0,0,1.37-.43,2,2,0,0,0,.41-1.4V20.18a1.81,1.81,0,0,0-.41-1.32,1.86,1.86,0,0,0-1.37-.41h-1.39V14.9H391.9v3.55h-1.19a1.81,1.81,0,0,0-1.33.41,1.81,1.81,0,0,0-.4,1.32v8.44h13v-8.4a2,2,0,0,0-.38-1.36,1.79,1.79,0,0,0-1.35-.41h-1.24V14.9h11.23v3.55H408.9a1.86,1.86,0,0,0-1.37.41,1.81,1.81,0,0,0-.41,1.32V40.62a2,2,0,0,0,.41,1.4,1.86,1.86,0,0,0,1.37.43h1.39V46H399.06v-3.5h1.24a1.77,1.77,0,0,0,1.32-.43,2,2,0,0,0,.41-1.4V32.13H389v8.49a2,2,0,0,0,.4,1.4,1.81,1.81,0,0,0,1.33.43h1.19V46H380.72Z"/><path class="cls-1" d="M414.8,42.66q-3.51-4-3.5-12.12t3.43-12.28q3.43-4.08,10.82-4.08t10.78,4.08q3.44,4.08,3.43,12.28t-3.5,12.12q-3.51,4-10.71,4T414.8,42.66Zm17.71-2.47q2.26-2.92,2.26-9.65t-2.23-9.84q-2.24-3-7-3t-7,3q-2.24,3-2.23,9.84t2.25,9.65c1.51,2,3.84,2.93,7,2.93S431,42.14,432.51,40.19Z"/><path class="cls-1" d="M440.77,42.5h1a1.56,1.56,0,0,0,1.87-1.83V20.13a1.81,1.81,0,0,0-.41-1.32,1.9,1.9,0,0,0-1.37-.41h-1.1V14.9h10.85v3.5h-1.16a1.85,1.85,0,0,0-1.32.41,1.81,1.81,0,0,0-.4,1.32V42.5H457a2,2,0,0,0,1.39-.41,1.81,1.81,0,0,0,.43-1.37V39.18h4.61V46h-22.7Z"/><path class="cls-1" d="M465.44,42.45h1.39A1.86,1.86,0,0,0,468.2,42a2,2,0,0,0,.41-1.4V20.18a1.81,1.81,0,0,0-.41-1.32,1.86,1.86,0,0,0-1.37-.41h-1.39V14.9h23v6.19h-4.61v-1a1.73,1.73,0,0,0-.43-1.32A2,2,0,0,0,482,18.4h-8.3V28.62H482v3.56h-8.3V42.45H482a2,2,0,0,0,1.39-.41,1.81,1.81,0,0,0,.43-1.37v-1h4.61V46h-23Z"/><path class="cls-1" d="M496.78,45.71a17.1,17.1,0,0,1-5.18-2.59v-4.7h5.14v3.12a10.74,10.74,0,0,0,2.95,1.15,14.78,14.78,0,0,0,3.57.43,6.77,6.77,0,0,0,4.37-1.22,4.27,4.27,0,0,0,1.49-3.48,4.25,4.25,0,0,0-.79-2.64A6.55,6.55,0,0,0,506.1,34a40.65,40.65,0,0,0-4-1.77,43.61,43.61,0,0,1-5.71-2.64,10.11,10.11,0,0,1-3.34-3,7.14,7.14,0,0,1-1.17-4.15A7,7,0,0,1,495,16.26a14.14,14.14,0,0,1,8-2.08,18,18,0,0,1,5.88.91,15.82,15.82,0,0,1,4.59,2.4V22h-5.14V19a10.79,10.79,0,0,0-5.57-1.25,7.56,7.56,0,0,0-4.36,1.1,3.92,3.92,0,0,0-1.59,3.46,3.89,3.89,0,0,0,1,2.73,7.38,7.38,0,0,0,2.3,1.73c.87.42,2.21,1,4,1.73A49.2,49.2,0,0,1,509.79,31a9.14,9.14,0,0,1,3.12,2.81,7.68,7.68,0,0,1,1.15,4.39,7.61,7.61,0,0,1-1.27,4.35,8.66,8.66,0,0,1-3.72,3,14.38,14.38,0,0,1-5.9,1.1A21,21,0,0,1,496.78,45.71Z"/><path class="cls-1" d="M6.77,45.59A17,17,0,0,1,1.58,43V38.3H6.72v3.12a10.74,10.74,0,0,0,3,1.15,14.8,14.8,0,0,0,3.58.43,6.79,6.79,0,0,0,4.37-1.22A4.26,4.26,0,0,0,19.1,38.3a4.25,4.25,0,0,0-.79-2.64,6.55,6.55,0,0,0-2.23-1.83,41.4,41.4,0,0,0-4-1.77,43.82,43.82,0,0,1-5.72-2.64,10.09,10.09,0,0,1-3.33-3,7.07,7.07,0,0,1-1.18-4.15A7,7,0,0,1,5,16.14a14.15,14.15,0,0,1,8-2.08,18,18,0,0,1,5.88.91,15.89,15.89,0,0,1,4.58,2.4v4.46H18.34v-3a10.81,10.81,0,0,0-5.57-1.25,7.59,7.59,0,0,0-4.37,1.1,3.92,3.92,0,0,0-1.58,3.46,3.88,3.88,0,0,0,1,2.73,7.41,7.41,0,0,0,2.31,1.73c.86.42,2.21,1,4,1.73a50.34,50.34,0,0,1,5.62,2.54,9.14,9.14,0,0,1,3.12,2.81,7.76,7.76,0,0,1,1.15,4.39,7.69,7.69,0,0,1-1.27,4.35,8.66,8.66,0,0,1-3.72,3,14.43,14.43,0,0,1-5.91,1.1A20.92,20.92,0,0,1,6.77,45.59Z"/><path class="cls-1" d="M26,42.33H27.5a3.14,3.14,0,0,0,1.71-.39,2.44,2.44,0,0,0,.93-1.34l9.17-25.82h4.85L53.23,40.6a2.47,2.47,0,0,0,1,1.34,3.26,3.26,0,0,0,1.73.39h1.44v3.5H46.42v-3.5h2.4L46.7,36.18h-10l-2.11,6.15H37v3.5H26Zm19.72-9.17-4-11.71L37.68,33.16Z"/><path class="cls-1" d="M55.58,20.2a3.07,3.07,0,0,0-1-1.58,3.58,3.58,0,0,0-1.92-.39h-1V14.78H59l8,24.38L75,14.78h7.44v3.45h-1a3.53,3.53,0,0,0-1.92.39,3.07,3.07,0,0,0-1,1.58l-9,25.63H64.66Z"/><path class="cls-1" d="M84.86,42.33h1.39a1.84,1.84,0,0,0,1.37-.43A2,2,0,0,0,88,40.5V20.06a1.81,1.81,0,0,0-.41-1.32,1.84,1.84,0,0,0-1.37-.41H84.86V14.78h23V21h-4.61V20a1.77,1.77,0,0,0-.43-1.32,2,2,0,0,0-1.4-.41h-8.3V28.5h8.3v3.56h-8.3V42.33h8.3a2,2,0,0,0,1.4-.41,1.86,1.86,0,0,0,.43-1.37v-1h4.61v6.24h-23Z"/><path class="cls-1" d="M131.33,42.28h1.29a2.08,2.08,0,0,0,1.47-.41,1.81,1.81,0,0,0,.4-1.32V18.38h-4.41a2,2,0,0,0-1.39.4,1.76,1.76,0,0,0-.44,1.32v1.54h-3.79V14.82h25.11v6.82h-3.8V20.1a1.8,1.8,0,0,0-.4-1.34,2.06,2.06,0,0,0-1.42-.38h-4.37V40.55a1.81,1.81,0,0,0,.41,1.32,2.05,2.05,0,0,0,1.46.41h1.3v3.55H131.33Z"/><path class="cls-1" d="M152.25,42.33h1.4A1.83,1.83,0,0,0,155,41.9a2,2,0,0,0,.41-1.4V20.06a1.77,1.77,0,0,0-.41-1.32,1.83,1.83,0,0,0-1.36-.41h-1.4V14.78h11.19v3.55h-1.2a1.77,1.77,0,0,0-1.32.41,1.81,1.81,0,0,0-.41,1.32V28.5h13.06V20.1a1.92,1.92,0,0,0-.39-1.36,1.75,1.75,0,0,0-1.34-.41h-1.25V14.78h11.23v3.55h-1.39a1.86,1.86,0,0,0-1.37.41,1.81,1.81,0,0,0-.41,1.32V40.5a2,2,0,0,0,.41,1.4,1.86,1.86,0,0,0,1.37.43h1.39v3.5H170.59v-3.5h1.25a1.77,1.77,0,0,0,1.32-.43,2,2,0,0,0,.41-1.4V32H160.51V40.5a2,2,0,0,0,.41,1.4,1.77,1.77,0,0,0,1.32.43h1.2v3.5H152.25Z"/><path class="cls-1" d="M185,42.33h1.39a1.86,1.86,0,0,0,1.37-.43,2,2,0,0,0,.41-1.4V20.06a1.81,1.81,0,0,0-.41-1.32,1.86,1.86,0,0,0-1.37-.41H185V14.78h23V21h-4.61V20a1.73,1.73,0,0,0-.43-1.32,2,2,0,0,0-1.39-.41h-8.3V28.5h8.3v3.56h-8.3V42.33h8.3a2,2,0,0,0,1.39-.41,1.81,1.81,0,0,0,.43-1.37v-1H208v6.24H185Z"/></svg>