<svg id="Layer_1" data-name="Layer 1" xmlns="http://www.w3.org/2000/svg" viewBox="0 0 337.2 98.91"><defs><style>.cls-1{fill:#fff;}</style></defs><title>save-the-potholes-03</title><path class="cls-1" d="M93.9,74.18h1.38a2.09,2.09,0,0,0,1.56-.46,2,2,0,0,0,.44-1.43V50.47a1.94,1.94,0,0,0-.44-1.41,2.19,2.19,0,0,0-1.56-.43H93.9V44.85h17.53c3.41,0,6.07.87,8,2.63s2.89,4.27,2.89,7.54a10.25,10.25,0,0,1-2.94,7.74,11,11,0,0,1-8,2.83h-8.69v6.7a2,2,0,0,0,.44,1.43,2.09,2.09,0,0,0,1.56.46H106v3.73H93.9Zm16.77-12.37a6.24,6.24,0,0,0,4.77-1.66Q117,58.49,117,55c0-2.35-.49-4-1.48-5s-2.61-1.43-4.85-1.43h-8V61.81Z"/><path class="cls-1" d="M129.16,74.41q-3.72-4.27-3.73-12.9t3.66-13.09q3.65-4.34,11.52-4.34t11.47,4.34q3.66,4.35,3.66,13.09T152,74.41q-3.73,4.26-11.4,4.27T129.16,74.41ZM148,71.78q2.4-3.12,2.4-10.27,0-7.32-2.37-10.48t-7.44-3.17c-3.41,0-5.9,1.06-7.49,3.17s-2.37,5.6-2.37,10.48.8,8.19,2.4,10.27,4.09,3.11,7.46,3.11S146.42,73.86,148,71.78Z"/><path class="cls-1" d="M165.14,74.13h1.38a2.19,2.19,0,0,0,1.56-.44,1.91,1.91,0,0,0,.43-1.4V48.68h-4.7a2.09,2.09,0,0,0-1.48.43,1.85,1.85,0,0,0-.46,1.41v1.63h-4V44.9h26.73v7.25h-4V50.52a1.91,1.91,0,0,0-.43-1.43,2.22,2.22,0,0,0-1.51-.41h-4.65V72.29a1.91,1.91,0,0,0,.43,1.4,2.19,2.19,0,0,0,1.56.44h1.38v3.78H165.14Z"/><path class="cls-1" d="M188.44,74.18h1.48a1.94,1.94,0,0,0,1.46-.46,2.11,2.11,0,0,0,.43-1.48V50.47a1.94,1.94,0,0,0-.43-1.41,2,2,0,0,0-1.46-.43h-1.48V44.85h11.91v3.78h-1.28a1.89,1.89,0,0,0-1.4.43,1.94,1.94,0,0,0-.44,1.41v9h13.9V50.52a2.12,2.12,0,0,0-.41-1.46,1.91,1.91,0,0,0-1.43-.43H208V44.85h12v3.78h-1.48a2,2,0,0,0-1.46.43,1.94,1.94,0,0,0-.43,1.41V72.24a2.11,2.11,0,0,0,.43,1.48,1.94,1.94,0,0,0,1.46.46h1.48v3.73H208V74.18h1.33a1.85,1.85,0,0,0,1.41-.46,2.11,2.11,0,0,0,.43-1.48v-9h-13.9v9a2.11,2.11,0,0,0,.44,1.48,1.82,1.82,0,0,0,1.4.46h1.28v3.73H188.44Z"/><path class="cls-1" d="M225.75,74.41Q222,70.14,222,61.51t3.66-13.09c2.43-2.89,6.28-4.34,11.52-4.34s9,1.45,11.47,4.34,3.66,7.26,3.66,13.09-1.25,10.05-3.73,12.9-6.29,4.27-11.4,4.27S228.23,77.25,225.75,74.41Zm18.85-2.63q2.4-3.12,2.4-10.27,0-7.32-2.37-10.48t-7.44-3.17q-5.12,0-7.48,3.17t-2.38,10.48q0,7.16,2.4,10.27c1.6,2.08,4.09,3.11,7.46,3.11S243,73.86,244.6,71.78Z"/><path class="cls-1" d="M254.41,74.23h1.08a2.07,2.07,0,0,0,1.55-.46,2.11,2.11,0,0,0,.44-1.48V50.42A1.94,1.94,0,0,0,257,49a2,2,0,0,0-1.45-.43h-1.18V44.85H266v3.73h-1.22a1.57,1.57,0,0,0-1.84,1.84V74.23h8.84a2.11,2.11,0,0,0,1.48-.43,2,2,0,0,0,.46-1.46V70.7h4.9v7.21H254.41Z"/><path class="cls-1" d="M281.7,74.18h1.48a1.94,1.94,0,0,0,1.46-.46,2.11,2.11,0,0,0,.43-1.48V50.47a1.94,1.94,0,0,0-.43-1.41,2,2,0,0,0-1.46-.43H281.7V44.85h24.48v6.59h-4.91v-1a1.85,1.85,0,0,0-.46-1.41,2.09,2.09,0,0,0-1.48-.43h-8.84V59.46h8.84v3.78h-8.84V74.18h8.84a2.09,2.09,0,0,0,1.48-.44,1.9,1.9,0,0,0,.46-1.45v-1h4.91v6.64H281.7Z"/><path class="cls-1" d="M316.09,77.65a18.19,18.19,0,0,1-5.52-2.76v-5H316v3.32a11.24,11.24,0,0,0,3.14,1.22,15.71,15.71,0,0,0,3.81.46,7.18,7.18,0,0,0,4.65-1.3,4.5,4.5,0,0,0,1.58-3.7,4.55,4.55,0,0,0-.84-2.81,7,7,0,0,0-2.38-2,45,45,0,0,0-4.24-1.89,44.39,44.39,0,0,1-6.08-2.81,10.64,10.64,0,0,1-3.55-3.14,7.62,7.62,0,0,1-1.25-4.42,7.4,7.4,0,0,1,3.32-6.57,15.06,15.06,0,0,1,8.53-2.22,19.12,19.12,0,0,1,6.26,1,16.7,16.7,0,0,1,4.88,2.56v4.75h-5.46V49.19a11.55,11.55,0,0,0-5.93-1.33A8,8,0,0,0,317.83,49a4.69,4.69,0,0,0-.62,6.59,8.1,8.1,0,0,0,2.46,1.84q1.38.66,4.29,1.84a50.13,50.13,0,0,1,6,2.71,9.53,9.53,0,0,1,3.32,3,9,9,0,0,1-.13,9.3,9.11,9.11,0,0,1-4,3.19,15.23,15.23,0,0,1-6.28,1.18A22.39,22.39,0,0,1,316.09,77.65Z"/><path class="cls-1" d="M99.64,34.07a14.1,14.1,0,0,1-4.32-2.16V28H99.6v2.6a8.77,8.77,0,0,0,2.46,1,12.34,12.34,0,0,0,3,.36,5.62,5.62,0,0,0,3.64-1,3.55,3.55,0,0,0,1.24-2.9,3.57,3.57,0,0,0-.66-2.2,5.5,5.5,0,0,0-1.86-1.51,33.46,33.46,0,0,0-3.32-1.48,37,37,0,0,1-4.76-2.2,8.52,8.52,0,0,1-2.78-2.46,6,6,0,0,1-1-3.46,5.79,5.79,0,0,1,2.6-5.14,11.78,11.78,0,0,1,6.68-1.74,15,15,0,0,1,4.9.76,12.92,12.92,0,0,1,3.82,2v3.72h-4.28V11.8a9,9,0,0,0-4.64-1,6.23,6.23,0,0,0-3.64.92,3.26,3.26,0,0,0-1.32,2.88,3.28,3.28,0,0,0,.84,2.28,6.37,6.37,0,0,0,1.92,1.44q1.08.51,3.36,1.44a40.12,40.12,0,0,1,4.68,2.12,7.47,7.47,0,0,1,2.6,2.34,6.37,6.37,0,0,1,1,3.65A6.39,6.39,0,0,1,113,31.45a7.1,7.1,0,0,1-3.1,2.5,11.81,11.81,0,0,1-4.92.92A17.26,17.26,0,0,1,99.64,34.07Z"/><path class="cls-1" d="M115.68,31.35h1.24a2.6,2.6,0,0,0,1.42-.32,2.08,2.08,0,0,0,.78-1.12L126.75,8.4h4l7.56,21.51a2,2,0,0,0,.8,1.12,2.7,2.7,0,0,0,1.44.32h1.2v2.92h-9.12V31.35h2l-1.76-5.12h-8.32l-1.76,5.12h2v2.92h-9.15Zm16.43-7.63L128.79,14l-3.4,9.76Z"/><path class="cls-1" d="M140.31,12.92a2.59,2.59,0,0,0-.84-1.32,2.93,2.93,0,0,0-1.6-.32H137V8.4h6.16l6.68,20.31,6.6-20.31h6.2v2.88h-.84a2.93,2.93,0,0,0-1.6.32,2.59,2.59,0,0,0-.84,1.32l-7.48,21.35h-4Z"/><path class="cls-1" d="M164.71,31.35h1.16A1.53,1.53,0,0,0,167,31a1.67,1.67,0,0,0,.34-1.16v-17a1.52,1.52,0,0,0-.34-1.1,1.57,1.57,0,0,0-1.14-.34h-1.16v-3h19.15v5.16H180v-.8a1.44,1.44,0,0,0-.36-1.1,1.63,1.63,0,0,0-1.16-.34h-6.92v8.52h6.92v3h-6.92v8.55h6.92a1.63,1.63,0,0,0,1.16-.34,1.5,1.5,0,0,0,.36-1.14v-.8h3.84v5.2H164.71Z"/><path class="cls-1" d="M204.22,31.31h1.08a1.71,1.71,0,0,0,1.22-.34,1.52,1.52,0,0,0,.34-1.1V11.4h-3.68a1.63,1.63,0,0,0-1.16.34,1.44,1.44,0,0,0-.36,1.1v1.28H198.5V8.44h20.92v5.68h-3.16V12.84a1.51,1.51,0,0,0-.34-1.12,1.68,1.68,0,0,0-1.18-.32H211.1V29.87a1.48,1.48,0,0,0,.34,1.1,1.68,1.68,0,0,0,1.22.34h1.08v3h-9.52Z"/><path class="cls-1" d="M221.65,31.35h1.16A1.5,1.5,0,0,0,224,31a1.63,1.63,0,0,0,.34-1.16v-17a1.48,1.48,0,0,0-.34-1.1,1.54,1.54,0,0,0-1.14-.34h-1.16v-3H231v3h-1a1.51,1.51,0,0,0-1.1.34,1.52,1.52,0,0,0-.34,1.1v7h10.88v-7a1.63,1.63,0,0,0-.32-1.14,1.49,1.49,0,0,0-1.12-.34h-1v-3h9.36v3h-1.16a1.57,1.57,0,0,0-1.14.34,1.48,1.48,0,0,0-.34,1.1v17A1.63,1.63,0,0,0,244,31a1.53,1.53,0,0,0,1.14.36h1.16v2.92h-9.36V31.35h1a1.46,1.46,0,0,0,1.1-.36,1.63,1.63,0,0,0,.34-1.16V22.76H228.53v7.07a1.67,1.67,0,0,0,.34,1.16,1.47,1.47,0,0,0,1.1.36h1v2.92h-9.32Z"/><path class="cls-1" d="M248.93,31.35h1.16a1.53,1.53,0,0,0,1.14-.36,1.63,1.63,0,0,0,.34-1.16v-17a1.48,1.48,0,0,0-.34-1.1,1.57,1.57,0,0,0-1.14-.34h-1.16v-3h19.16v5.16h-3.84v-.8a1.44,1.44,0,0,0-.36-1.1,1.64,1.64,0,0,0-1.16-.34h-6.92v8.52h6.92v3h-6.92v8.55h6.92a1.64,1.64,0,0,0,1.16-.34,1.5,1.5,0,0,0,.36-1.14v-.8h3.84v5.2H248.93Z"/><path class="cls-1" d="M41,3.7a41,41,0,1,0,41,41A41,41,0,0,0,41,3.7ZM38.26,16.8c.32-1.24,1.88-1.82,3.31-1.82s3,.65,3.31,1.82c.52,1.81,1.3,4.61,2.27,7.85-.65,1.49-3,2.47-5.58,2.47s-4.93-1-5.58-2.47C36.9,21.34,37.74,18.55,38.26,16.8ZM34,31.73c.58,2.07,3.89,3.57,7.66,3.57s7.07-1.5,7.65-3.57c.85,2.92,1.76,6,2.54,8.69-.33,3-4.81,5.2-10.26,5.2s-9.93-2.28-10.12-5.2C32.22,37.7,33.13,34.65,34,31.73ZM61.76,55.61l-16,12.92a8.15,8.15,0,0,1-8.24,0l-16-12.92c-2.27-1.49-2.21-3.63.19-4.8l8.51-4.68-1,3.32c.07,3.56,5.72,6.36,12.4,6.36S53.9,53,54,49.45l-1-3.32,8.51,4.68C63.9,52,64,54.18,61.76,55.61Z"/></svg>