<svg id="Layer_1" data-name="Layer 1" xmlns="http://www.w3.org/2000/svg" viewBox="0 0 515.65 65.68"><defs><style>.cls-1{fill:#e4731e;}.cls-2{fill:#fff;}</style></defs><title>save-the-potholes-h02</title><circle class="cls-1" cx="251" cy="32.84" r="31"/><path class="cls-2" d="M251.43,33.53c4.12,0,7.51-1.67,7.76-3.92-.59-2.06-1.28-4.37-1.92-6.58-.44,1.57-2.94,2.7-5.79,2.7s-5.35-1.13-5.79-2.7c-.64,2.21-1.33,4.52-1.91,6.58C243.92,31.82,247.36,33.53,251.43,33.53Zm0-14c1.92,0,3.73-.74,4.22-1.87-.73-2.45-1.32-4.56-1.72-5.94-.24-.88-1.42-1.37-2.5-1.37s-2.26.44-2.5,1.37c-.39,1.33-1,3.44-1.72,5.94C247.7,18.81,249.52,19.55,251.43,19.55ZM266.5,37.46l-6.43-3.53.74,2.5c-.05,2.65-4.32,4.81-9.38,4.81s-9.32-2.11-9.37-4.81l.73-2.5-6.42,3.53c-1.82.88-1.87,2.5-.15,3.63l12.12,9.77a6.15,6.15,0,0,0,6.23,0l12.12-9.77C268.36,40,268.31,38.34,266.5,37.46Z"/><path class="cls-2" d="M294.8,44.29h1.3a2,2,0,0,0,1.46-.43,1.93,1.93,0,0,0,.41-1.35V22a1.81,1.81,0,0,0-.41-1.32,2,2,0,0,0-1.46-.41h-1.3V16.74h16.47a10.74,10.74,0,0,1,7.51,2.47,9.13,9.13,0,0,1,2.71,7.08,9.64,9.64,0,0,1-2.76,7.27,10.33,10.33,0,0,1-7.51,2.66h-8.16v6.29a1.88,1.88,0,0,0,.41,1.35,2,2,0,0,0,1.46.43h1.25v3.5H294.8Zm15.75-11.62A5.86,5.86,0,0,0,315,31.11a6.83,6.83,0,0,0,1.47-4.82c0-2.21-.47-3.76-1.39-4.66s-2.45-1.34-4.56-1.34h-7.49V32.67Z"/><path class="cls-2" d="M327,44.5q-3.49-4-3.5-12.12t3.43-12.28Q330.33,16,337.71,16t10.78,4.08q3.43,4.08,3.43,12.28t-3.5,12.12q-3.51,4-10.71,4T327,44.5ZM344.67,42q2.26-2.93,2.26-9.65t-2.23-9.84q-2.24-3-7-3t-7,3q-2.24,3-2.23,9.84T330.71,42c1.5,1.95,3.84,2.93,7,2.93S343.17,44,344.67,42Z"/><path class="cls-2" d="M359.79,44.24h1.3a2.05,2.05,0,0,0,1.46-.41,1.81,1.81,0,0,0,.41-1.32V20.34h-4.42a2,2,0,0,0-1.39.4,1.8,1.8,0,0,0-.43,1.32V23.6h-3.79V16.78H378V23.6h-3.79V22.06a1.8,1.8,0,0,0-.41-1.34,2,2,0,0,0-1.41-.38h-4.37V42.51a1.77,1.77,0,0,0,.41,1.32,2.05,2.05,0,0,0,1.46.41h1.3v3.55H359.79Z"/><path class="cls-2" d="M380.72,44.29h1.39a1.86,1.86,0,0,0,1.37-.43,2,2,0,0,0,.41-1.4V22a1.81,1.81,0,0,0-.41-1.32,1.86,1.86,0,0,0-1.37-.41h-1.39V16.74H391.9v3.55h-1.19a1.81,1.81,0,0,0-1.33.41A1.81,1.81,0,0,0,389,22v8.44h13v-8.4a2,2,0,0,0-.38-1.36,1.79,1.79,0,0,0-1.35-.41h-1.24V16.74h11.23v3.55H408.9a1.86,1.86,0,0,0-1.37.41,1.81,1.81,0,0,0-.41,1.32V42.46a2,2,0,0,0,.41,1.4,1.86,1.86,0,0,0,1.37.43h1.39v3.5H399.06v-3.5h1.24a1.77,1.77,0,0,0,1.32-.43,2,2,0,0,0,.41-1.4V34H389v8.49a2,2,0,0,0,.4,1.4,1.81,1.81,0,0,0,1.33.43h1.19v3.5H380.72Z"/><path class="cls-2" d="M414.8,44.5q-3.51-4-3.5-12.12t3.43-12.28Q418.17,16,425.55,16t10.78,4.08q3.44,4.08,3.43,12.28t-3.5,12.12q-3.51,4-10.71,4T414.8,44.5ZM432.51,42q2.26-2.93,2.26-9.65t-2.23-9.84q-2.24-3-7-3t-7,3q-2.24,3-2.23,9.84T418.54,42c1.51,1.95,3.84,2.93,7,2.93S431,44,432.51,42Z"/><path class="cls-2" d="M440.77,44.34h1a1.56,1.56,0,0,0,1.87-1.83V22a1.81,1.81,0,0,0-.41-1.32,1.9,1.9,0,0,0-1.37-.41h-1.1v-3.5h10.85v3.5h-1.16a1.85,1.85,0,0,0-1.32.41,1.81,1.81,0,0,0-.4,1.32V44.34H457a2,2,0,0,0,1.39-.41,1.81,1.81,0,0,0,.43-1.37V41h4.61v6.77h-22.7Z"/><path class="cls-2" d="M465.44,44.29h1.39a1.86,1.86,0,0,0,1.37-.43,2,2,0,0,0,.41-1.4V22a1.81,1.81,0,0,0-.41-1.32,1.86,1.86,0,0,0-1.37-.41h-1.39V16.74h23v6.19h-4.61V22a1.73,1.73,0,0,0-.43-1.32,2,2,0,0,0-1.39-.41h-8.3V30.46H482V34h-8.3V44.29H482a2,2,0,0,0,1.39-.41,1.81,1.81,0,0,0,.43-1.37v-1h4.61v6.24h-23Z"/><path class="cls-2" d="M496.78,47.55A17.1,17.1,0,0,1,491.6,45v-4.7h5.14v3.12a10.74,10.74,0,0,0,2.95,1.15,14.78,14.78,0,0,0,3.57.43,6.77,6.77,0,0,0,4.37-1.22,4.81,4.81,0,0,0,.7-6.12,6.55,6.55,0,0,0-2.23-1.83,40.65,40.65,0,0,0-4-1.77,43.61,43.61,0,0,1-5.71-2.64,10.23,10.23,0,0,1-3.34-3,7.14,7.14,0,0,1-1.17-4.15A7,7,0,0,1,495,18.1,14.14,14.14,0,0,1,503,16a18,18,0,0,1,5.88.91,15.82,15.82,0,0,1,4.59,2.4v4.46h-5.14v-3a10.79,10.79,0,0,0-5.57-1.25,7.56,7.56,0,0,0-4.36,1.1,3.92,3.92,0,0,0-1.59,3.46,3.89,3.89,0,0,0,1,2.73,7.38,7.38,0,0,0,2.3,1.73c.87.42,2.21,1,4,1.73a49.2,49.2,0,0,1,5.61,2.54,9.14,9.14,0,0,1,3.12,2.81,7.68,7.68,0,0,1,1.15,4.39,7.61,7.61,0,0,1-1.27,4.35,8.66,8.66,0,0,1-3.72,3,14.38,14.38,0,0,1-5.9,1.1A21,21,0,0,1,496.78,47.55Z"/><path class="cls-2" d="M6.77,47.43a17,17,0,0,1-5.19-2.59v-4.7H6.72v3.12a10.74,10.74,0,0,0,3,1.15,14.8,14.8,0,0,0,3.58.43,6.79,6.79,0,0,0,4.37-1.22,4.26,4.26,0,0,0,1.48-3.48,4.25,4.25,0,0,0-.79-2.64,6.55,6.55,0,0,0-2.23-1.83,41.4,41.4,0,0,0-4-1.77,43.82,43.82,0,0,1-5.72-2.64,10.09,10.09,0,0,1-3.33-3,7.07,7.07,0,0,1-1.18-4.15A7,7,0,0,1,5,18a14.15,14.15,0,0,1,8-2.08,18,18,0,0,1,5.88.91,15.89,15.89,0,0,1,4.58,2.4v4.46H18.34v-3a10.81,10.81,0,0,0-5.57-1.25,7.59,7.59,0,0,0-4.37,1.1A3.92,3.92,0,0,0,6.82,24a3.88,3.88,0,0,0,1,2.73,7.41,7.41,0,0,0,2.31,1.73c.86.42,2.21,1,4,1.73a50.34,50.34,0,0,1,5.62,2.54,9.14,9.14,0,0,1,3.12,2.81,7.76,7.76,0,0,1,1.15,4.39,7.69,7.69,0,0,1-1.27,4.35,8.66,8.66,0,0,1-3.72,3,14.43,14.43,0,0,1-5.91,1.1A20.92,20.92,0,0,1,6.77,47.43Z"/><path class="cls-2" d="M26,44.17H27.5a3.14,3.14,0,0,0,1.71-.39,2.44,2.44,0,0,0,.93-1.34l9.17-25.82h4.85l9.07,25.82a2.47,2.47,0,0,0,1,1.34,3.26,3.26,0,0,0,1.73.39h1.44v3.5H46.42v-3.5h2.4L46.7,38h-10l-2.11,6.15H37v3.5H26ZM45.74,35l-4-11.71L37.68,35Z"/><path class="cls-2" d="M55.58,22a3.07,3.07,0,0,0-1-1.58,3.58,3.58,0,0,0-1.92-.39h-1V16.62H59l8,24.38L75,16.62h7.44v3.45h-1a3.53,3.53,0,0,0-1.92.39,3.07,3.07,0,0,0-1,1.58l-9,25.63H64.66Z"/><path class="cls-2" d="M84.86,44.17h1.39a1.84,1.84,0,0,0,1.37-.43,2,2,0,0,0,.41-1.4V21.9a1.81,1.81,0,0,0-.41-1.32,1.84,1.84,0,0,0-1.37-.41H84.86V16.62h23v6.19h-4.61v-1a1.77,1.77,0,0,0-.43-1.32,2,2,0,0,0-1.4-.41h-8.3V30.34h8.3V33.9h-8.3V44.17h8.3a2,2,0,0,0,1.4-.41,1.86,1.86,0,0,0,.43-1.37v-1h4.61v6.24h-23Z"/><path class="cls-2" d="M131.33,44.12h1.29a2.08,2.08,0,0,0,1.47-.41,1.81,1.81,0,0,0,.4-1.32V20.22h-4.41a2,2,0,0,0-1.39.4,1.76,1.76,0,0,0-.44,1.32v1.54h-3.79V16.66h25.11v6.82h-3.8V21.94a1.8,1.8,0,0,0-.4-1.34,2.06,2.06,0,0,0-1.42-.38h-4.37V42.39a1.81,1.81,0,0,0,.41,1.32,2.05,2.05,0,0,0,1.46.41h1.3v3.55H131.33Z"/><path class="cls-2" d="M152.25,44.17h1.4a1.83,1.83,0,0,0,1.36-.43,2,2,0,0,0,.41-1.4V21.9a1.77,1.77,0,0,0-.41-1.32,1.83,1.83,0,0,0-1.36-.41h-1.4V16.62h11.19v3.55h-1.2a1.77,1.77,0,0,0-1.32.41,1.81,1.81,0,0,0-.41,1.32v8.44h13.06v-8.4a1.92,1.92,0,0,0-.39-1.36,1.75,1.75,0,0,0-1.34-.41h-1.25V16.62h11.23v3.55h-1.39a1.86,1.86,0,0,0-1.37.41,1.81,1.81,0,0,0-.41,1.32V42.34a2,2,0,0,0,.41,1.4,1.86,1.86,0,0,0,1.37.43h1.39v3.5H170.59v-3.5h1.25a1.77,1.77,0,0,0,1.32-.43,2,2,0,0,0,.41-1.4V33.85H160.51v8.49a2,2,0,0,0,.41,1.4,1.77,1.77,0,0,0,1.32.43h1.2v3.5H152.25Z"/><path class="cls-2" d="M185,44.17h1.39a1.86,1.86,0,0,0,1.37-.43,2,2,0,0,0,.41-1.4V21.9a1.81,1.81,0,0,0-.41-1.32,1.86,1.86,0,0,0-1.37-.41H185V16.62h23v6.19h-4.61v-1a1.73,1.73,0,0,0-.43-1.32,2,2,0,0,0-1.39-.41h-8.3V30.34h8.3V33.9h-8.3V44.17h8.3a2,2,0,0,0,1.39-.41,1.81,1.81,0,0,0,.43-1.37v-1H208v6.24H185Z"/></svg>