<svg id="Layer_1" data-name="Layer 1" xmlns="http://www.w3.org/2000/svg" viewBox="0 0 337.2 98.91"><defs><style>.cls-1{fill:#fff;}.cls-2{fill:#e4731e;}</style></defs><title>save-the-potholes-02</title><path class="cls-1" d="M95.26,78.94h1.38a2.14,2.14,0,0,0,1.56-.46A2,2,0,0,0,98.63,77V55.22a1.92,1.92,0,0,0-.43-1.4,2.19,2.19,0,0,0-1.56-.44H95.26V49.6h17.53c3.4,0,6.07.88,8,2.63s2.89,4.27,2.89,7.54a10.25,10.25,0,0,1-2.94,7.74,11,11,0,0,1-8,2.84h-8.69V77a2,2,0,0,0,.43,1.44,2.14,2.14,0,0,0,1.56.46h1.33v3.73H95.26ZM112,66.57a6.25,6.25,0,0,0,4.78-1.66q1.56-1.66,1.56-5.14c0-2.35-.5-4-1.48-5s-2.61-1.44-4.86-1.44h-8V66.57Z"/><path class="cls-1" d="M130.52,79.17q-3.74-4.28-3.73-12.91t3.65-13.08q3.66-4.35,11.52-4.34t11.48,4.34q3.65,4.35,3.65,13.08t-3.73,12.91c-2.49,2.84-6.28,4.26-11.4,4.26S133,82,130.52,79.17Zm18.86-2.64q2.4-3.11,2.4-10.27T149.4,55.79c-1.58-2.12-4.06-3.17-7.44-3.17s-5.9,1.05-7.48,3.17-2.38,5.6-2.38,10.47.8,8.2,2.4,10.27,4.09,3.12,7.46,3.12S147.77,78.61,149.38,76.53Z"/><path class="cls-1" d="M166.49,78.88h1.38a2.19,2.19,0,0,0,1.56-.43,1.94,1.94,0,0,0,.44-1.41V53.44h-4.7a2.12,2.12,0,0,0-1.49.43,1.89,1.89,0,0,0-.46,1.41v1.63h-4V49.65h26.72v7.26h-4V55.28a1.94,1.94,0,0,0-.44-1.44,2.2,2.2,0,0,0-1.51-.4h-4.65V77a1.94,1.94,0,0,0,.44,1.41,2.19,2.19,0,0,0,1.56.43h1.38v3.79H166.49Z"/><path class="cls-1" d="M189.8,78.94h1.48a2,2,0,0,0,1.45-.46,2.12,2.12,0,0,0,.44-1.49V55.22a1.93,1.93,0,0,0-.44-1.4,2,2,0,0,0-1.45-.44H189.8V49.6h11.9v3.78h-1.28a1.59,1.59,0,0,0-1.84,1.84v9h13.9V55.28a2.11,2.11,0,0,0-.4-1.46,1.93,1.93,0,0,0-1.43-.44h-1.33V49.6h12v3.78h-1.48a2,2,0,0,0-1.45.44,1.93,1.93,0,0,0-.44,1.4V77a2.12,2.12,0,0,0,.44,1.49,1.94,1.94,0,0,0,1.45.46h1.48v3.73h-12V78.94h1.33a1.88,1.88,0,0,0,1.4-.46,2.12,2.12,0,0,0,.43-1.49V68h-13.9v9a2.12,2.12,0,0,0,.44,1.49,1.88,1.88,0,0,0,1.4.46h1.28v3.73H189.8Z"/><path class="cls-1" d="M227.1,79.17q-3.73-4.28-3.73-12.91T227,53.18q3.66-4.35,11.53-4.34T250,53.18q3.64,4.35,3.65,13.08t-3.73,12.91q-3.74,4.26-11.39,4.26T227.1,79.17ZM246,76.53q2.4-3.11,2.4-10.27T246,55.79c-1.58-2.12-4.06-3.17-7.43-3.17s-5.91,1.05-7.49,3.17-2.38,5.6-2.38,10.47.8,8.2,2.4,10.27,4.09,3.12,7.47,3.12S244.35,78.61,246,76.53Z"/><path class="cls-1" d="M255.77,79h1.07a1.65,1.65,0,0,0,2-1.95V55.17a1.92,1.92,0,0,0-.43-1.4,2,2,0,0,0-1.46-.44h-1.17V49.6h11.55v3.73h-1.23a1.58,1.58,0,0,0-1.84,1.84V79h8.84a2.09,2.09,0,0,0,1.48-.44A1.91,1.91,0,0,0,275,77.1V75.46h4.91v7.21H255.77Z"/><path class="cls-1" d="M283.05,78.94h1.49a2,2,0,0,0,1.45-.46,2.12,2.12,0,0,0,.44-1.49V55.22a1.93,1.93,0,0,0-.44-1.4,2,2,0,0,0-1.45-.44h-1.49V49.6h24.48v6.6h-4.9v-1a1.88,1.88,0,0,0-.46-1.4,2.12,2.12,0,0,0-1.49-.44h-8.84V64.22h8.84V68h-8.84V78.94h8.84a2.12,2.12,0,0,0,1.49-.44,2,2,0,0,0,.46-1.46V76h4.9v6.65H283.05Z"/><path class="cls-1" d="M317.45,82.41a18.07,18.07,0,0,1-5.52-2.76v-5h5.46V78a11.31,11.31,0,0,0,3.15,1.23,15.62,15.62,0,0,0,3.8.46,7.14,7.14,0,0,0,4.65-1.3,5.12,5.12,0,0,0,.75-6.52,7.21,7.21,0,0,0-2.38-1.94A46.17,46.17,0,0,0,323.12,68,45.63,45.63,0,0,1,317,65.19a10.65,10.65,0,0,1-3.55-3.14,7.57,7.57,0,0,1-1.26-4.42,7.4,7.4,0,0,1,3.32-6.57,15.09,15.09,0,0,1,8.54-2.22,19.16,19.16,0,0,1,6.26,1,16.69,16.69,0,0,1,4.88,2.55v4.75h-5.47V54a11.52,11.52,0,0,0-5.93-1.33,8.08,8.08,0,0,0-4.65,1.17,4.71,4.71,0,0,0-.61,6.6A8.22,8.22,0,0,0,321,62.23q1.38.66,4.3,1.83a53.28,53.28,0,0,1,6,2.71,9.66,9.66,0,0,1,3.33,3,8.26,8.26,0,0,1,1.22,4.68,8.09,8.09,0,0,1-1.35,4.62,9.25,9.25,0,0,1-4,3.2,15.29,15.29,0,0,1-6.29,1.17A22.32,22.32,0,0,1,317.45,82.41Z"/><path class="cls-1" d="M101,38.83a14.1,14.1,0,0,1-4.32-2.16V32.75H101v2.6a9,9,0,0,0,2.46,1,12.46,12.46,0,0,0,3,.36,5.6,5.6,0,0,0,3.64-1,3.54,3.54,0,0,0,1.24-2.9,3.57,3.57,0,0,0-.66-2.2A5.64,5.64,0,0,0,108.75,29a34.8,34.8,0,0,0-3.32-1.48,35,35,0,0,1-4.76-2.2,8.4,8.4,0,0,1-2.78-2.46,6,6,0,0,1-1-3.46,5.8,5.8,0,0,1,2.6-5.14,11.88,11.88,0,0,1,6.68-1.74,15.22,15.22,0,0,1,4.9.76,13.4,13.4,0,0,1,3.82,2V19h-4.28V16.55a9.09,9.09,0,0,0-4.64-1,6.32,6.32,0,0,0-3.64.92A3.28,3.28,0,0,0,101,19.31a3.24,3.24,0,0,0,.84,2.28A6.06,6.06,0,0,0,103.79,23q1.08.52,3.36,1.44a40.24,40.24,0,0,1,4.68,2.12,7.66,7.66,0,0,1,2.6,2.34,6.42,6.42,0,0,1,1,3.66,6.31,6.31,0,0,1-1.06,3.62,7.17,7.17,0,0,1-3.1,2.5,12,12,0,0,1-4.92.92A17.61,17.61,0,0,1,101,38.83Z"/><path class="cls-1" d="M117,36.11h1.24a2.67,2.67,0,0,0,1.42-.32,2.12,2.12,0,0,0,.78-1.12l7.64-21.51h4l7.56,21.51a2,2,0,0,0,.8,1.12,2.74,2.74,0,0,0,1.44.32h1.2V39H134V36.11h2L134.27,31H126l-1.76,5.12h2V39H117Zm16.44-7.64-3.32-9.76-3.4,9.76Z"/><path class="cls-1" d="M141.67,17.67a2.68,2.68,0,0,0-.84-1.32,3,3,0,0,0-1.6-.32h-.84V13.16h6.15l6.68,20.31,6.6-20.31H164V16h-.84a3,3,0,0,0-1.6.32,2.68,2.68,0,0,0-.84,1.32L153.26,39h-4Z"/><path class="cls-1" d="M166.06,36.11h1.16a1.53,1.53,0,0,0,1.14-.36,1.64,1.64,0,0,0,.34-1.16v-17a1.51,1.51,0,0,0-.34-1.1,1.62,1.62,0,0,0-1.14-.34h-1.16V13.16h19.16v5.15h-3.84v-.8a1.47,1.47,0,0,0-.36-1.1,1.69,1.69,0,0,0-1.16-.34h-6.92v8.52h6.92v3h-6.92v8.56h6.92a1.64,1.64,0,0,0,1.16-.34,1.53,1.53,0,0,0,.36-1.14v-.8h3.84V39H166.06Z"/><path class="cls-1" d="M205.57,36.07h1.08a1.68,1.68,0,0,0,1.22-.34,1.49,1.49,0,0,0,.34-1.1V16.15h-3.68a1.69,1.69,0,0,0-1.16.34,1.47,1.47,0,0,0-.36,1.1v1.28h-3.16V13.2h20.92v5.67h-3.16V17.59a1.5,1.5,0,0,0-.34-1.12,1.74,1.74,0,0,0-1.18-.32h-3.64V34.63a1.49,1.49,0,0,0,.34,1.1,1.7,1.7,0,0,0,1.22.34h1.08v3h-9.52Z"/><path class="cls-1" d="M223,36.11h1.16a1.53,1.53,0,0,0,1.14-.36,1.64,1.64,0,0,0,.34-1.16v-17a1.51,1.51,0,0,0-.34-1.1,1.62,1.62,0,0,0-1.14-.34H223V13.16h9.32v2.95h-1a1.52,1.52,0,0,0-1.1.34,1.51,1.51,0,0,0-.34,1.1v7h10.88v-7a1.67,1.67,0,0,0-.32-1.14,1.54,1.54,0,0,0-1.12-.34h-1V13.16h9.35v2.95h-1.16a1.62,1.62,0,0,0-1.14.34,1.56,1.56,0,0,0-.34,1.1v17a1.69,1.69,0,0,0,.34,1.16,1.53,1.53,0,0,0,1.14.36h1.16V39h-9.35V36.11h1a1.47,1.47,0,0,0,1.1-.36,1.69,1.69,0,0,0,.34-1.16V27.51H229.89v7.08a1.64,1.64,0,0,0,.34,1.16,1.44,1.44,0,0,0,1.1.36h1V39H223Z"/><path class="cls-1" d="M250.28,36.11h1.16a1.5,1.5,0,0,0,1.14-.36,1.64,1.64,0,0,0,.34-1.16v-17a1.51,1.51,0,0,0-.34-1.1,1.58,1.58,0,0,0-1.14-.34h-1.16V13.16h19.16v5.15H265.6v-.8a1.47,1.47,0,0,0-.36-1.1,1.69,1.69,0,0,0-1.16-.34h-6.92v8.52h6.92v3h-6.92v8.56h6.92a1.64,1.64,0,0,0,1.16-.34,1.53,1.53,0,0,0,.36-1.14v-.8h3.84V39H250.28Z"/><circle class="cls-2" cx="42.35" cy="49.46" r="41"/><path class="cls-1" d="M42.93,50.37c5.45,0,9.93-2.2,10.25-5.19-.78-2.73-1.69-5.78-2.53-8.7-.58,2.08-3.9,3.57-7.66,3.57s-7.07-1.49-7.66-3.57c-.84,2.92-1.75,6-2.53,8.7C33,48.1,37.54,50.37,42.93,50.37Zm0-18.5c2.53,0,4.93-1,5.58-2.46-1-3.25-1.76-6-2.27-7.86-.33-1.16-1.89-1.81-3.31-1.81s-3,.58-3.32,1.81c-.51,1.76-1.36,4.55-2.27,7.86C38,30.9,40.39,31.87,42.93,31.87ZM62.85,55.56l-8.5-4.67,1,3.31c-.06,3.51-5.71,6.36-12.39,6.36s-12.34-2.79-12.4-6.36l1-3.31L23,55.56c-2.4,1.17-2.47,3.32-.2,4.81l16,12.91a8.11,8.11,0,0,0,8.24,0l16-12.91C65.32,58.94,65.25,56.73,62.85,55.56Z"/></svg>